<svg width="192" height="40" viewBox="0 0 192 40" fill="none" xmlns="http://www.w3.org/2000/svg">
<rect width="40" height="40" rx="3.96" fill="#FF5100"/>
<g clip-path="url(#clip0_5422_192)">
<path d="M26.7362 15.7984L20.0407 19.6185L13.2661 15.7534L20.0451 11.8859L23.8623 14.1237L28.1568 11.6878L20.0451 7L9 13.3017V13.3192V18.1876V18.2051L20.0407 24.5044L26.7362 20.6842V24.2939L20.0407 28.1141L9 21.8148V26.7006L20.0407 33L31 26.7473V13.3655L26.7362 15.7984Z" fill="white"/>
</g>
<path d="M54.32 27.14C53.2933 27.14 52.3733 26.9733 51.56 26.64C50.7467 26.3067 50.0933 25.8133 49.6 25.16C49.12 24.5067 48.8667 23.72 48.84 22.8H52.48C52.5333 23.32 52.7133 23.72 53.02 24C53.3267 24.2667 53.7267 24.4 54.22 24.4C54.7267 24.4 55.1267 24.2867 55.42 24.06C55.7133 23.82 55.86 23.4933 55.86 23.08C55.86 22.7333 55.74 22.4467 55.5 22.22C55.2733 21.9933 54.9867 21.8067 54.64 21.66C54.3067 21.5133 53.8267 21.3467 53.2 21.16C52.2933 20.88 51.5533 20.6 50.98 20.32C50.4067 20.04 49.9133 19.6267 49.5 19.08C49.0867 18.5333 48.88 17.82 48.88 16.94C48.88 15.6333 49.3533 14.6133 50.3 13.88C51.2467 13.1333 52.48 12.76 54 12.76C55.5467 12.76 56.7933 13.1333 57.74 13.88C58.6867 14.6133 59.1933 15.64 59.26 16.96H55.56C55.5333 16.5067 55.3667 16.1533 55.06 15.9C54.7533 15.6333 54.36 15.5 53.88 15.5C53.4667 15.5 53.1333 15.6133 52.88 15.84C52.6267 16.0533 52.5 16.3667 52.5 16.78C52.5 17.2333 52.7133 17.5867 53.14 17.84C53.5667 18.0933 54.2333 18.3667 55.14 18.66C56.0467 18.9667 56.78 19.26 57.34 19.54C57.9133 19.82 58.4067 20.2267 58.82 20.76C59.2333 21.2933 59.44 21.98 59.44 22.82C59.44 23.62 59.2333 24.3467 58.82 25C58.42 25.6533 57.8333 26.1733 57.06 26.56C56.2867 26.9467 55.3733 27.14 54.32 27.14ZM67.7647 24.1V27H66.0247C64.7847 27 63.818 26.7 63.1247 26.1C62.4314 25.4867 62.0847 24.4933 62.0847 23.12V18.68H60.7247V15.84H62.0847V13.12H65.5047V15.84H67.7447V18.68H65.5047V23.16C65.5047 23.4933 65.5847 23.7333 65.7447 23.88C65.9047 24.0267 66.1714 24.1 66.5447 24.1H67.7647ZM80.6897 15.84V27H77.2697V25.48C76.923 25.9733 76.4497 26.3733 75.8497 26.68C75.263 26.9733 74.6097 27.12 73.8897 27.12C73.0364 27.12 72.283 26.9333 71.6297 26.56C70.9764 26.1733 70.4697 25.62 70.1097 24.9C69.7497 24.18 69.5697 23.3333 69.5697 22.36V15.84H72.9697V21.9C72.9697 22.6467 73.163 23.2267 73.5497 23.64C73.9364 24.0533 74.4564 24.26 75.1097 24.26C75.7764 24.26 76.303 24.0533 76.6897 23.64C77.0764 23.2267 77.2697 22.6467 77.2697 21.9V15.84H80.6897ZM82.4663 21.4C82.4663 20.2533 82.6796 19.2467 83.1063 18.38C83.5463 17.5133 84.1396 16.8467 84.8863 16.38C85.6329 15.9133 86.4663 15.68 87.3863 15.68C88.1196 15.68 88.7863 15.8333 89.3863 16.14C89.9996 16.4467 90.4796 16.86 90.8263 17.38V12.2H94.2463V27H90.8263V25.4C90.5063 25.9333 90.0463 26.36 89.4463 26.68C88.8596 27 88.1729 27.16 87.3863 27.16C86.4663 27.16 85.6329 26.9267 84.8863 26.46C84.1396 25.98 83.5463 25.3067 83.1063 24.44C82.6796 23.56 82.4663 22.5467 82.4663 21.4ZM90.8263 21.42C90.8263 20.5667 90.5863 19.8933 90.1063 19.4C89.6396 18.9067 89.0663 18.66 88.3863 18.66C87.7063 18.66 87.1263 18.9067 86.6463 19.4C86.1796 19.88 85.9463 20.5467 85.9463 21.4C85.9463 22.2533 86.1796 22.9333 86.6463 23.44C87.1263 23.9333 87.7063 24.18 88.3863 24.18C89.0663 24.18 89.6396 23.9333 90.1063 23.44C90.5863 22.9467 90.8263 22.2733 90.8263 21.42ZM107.24 21.24C107.24 21.56 107.22 21.8933 107.18 22.24H99.4405C99.4938 22.9333 99.7138 23.4667 100.1 23.84C100.5 24.2 100.987 24.38 101.56 24.38C102.414 24.38 103.007 24.02 103.34 23.3H106.98C106.794 24.0333 106.454 24.6933 105.96 25.28C105.48 25.8667 104.874 26.3267 104.14 26.66C103.407 26.9933 102.587 27.16 101.68 27.16C100.587 27.16 99.6138 26.9267 98.7605 26.46C97.9071 25.9933 97.2405 25.3267 96.7605 24.46C96.2805 23.5933 96.0405 22.58 96.0405 21.42C96.0405 20.26 96.2738 19.2467 96.7405 18.38C97.2205 17.5133 97.8871 16.8467 98.7405 16.38C99.5938 15.9133 100.574 15.68 101.68 15.68C102.76 15.68 103.72 15.9067 104.56 16.36C105.4 16.8133 106.054 17.46 106.52 18.3C107 19.14 107.24 20.12 107.24 21.24ZM103.74 20.34C103.74 19.7533 103.54 19.2867 103.14 18.94C102.74 18.5933 102.24 18.42 101.64 18.42C101.067 18.42 100.58 18.5867 100.18 18.92C99.7938 19.2533 99.5538 19.7267 99.4605 20.34H103.74ZM115.845 15.72C117.151 15.72 118.191 16.1467 118.965 17C119.751 17.84 120.145 19 120.145 20.48V27H116.745V20.94C116.745 20.1933 116.551 19.6133 116.165 19.2C115.778 18.7867 115.258 18.58 114.605 18.58C113.951 18.58 113.431 18.7867 113.045 19.2C112.658 19.6133 112.465 20.1933 112.465 20.94V27H109.045V15.84H112.465V17.32C112.811 16.8267 113.278 16.44 113.865 16.16C114.451 15.8667 115.111 15.72 115.845 15.72ZM128.741 24.1V27H127.001C125.761 27 124.795 26.7 124.101 26.1C123.408 25.4867 123.061 24.4933 123.061 23.12V18.68H121.701V15.84H123.061V13.12H126.481V15.84H128.721V18.68H126.481V23.16C126.481 23.4933 126.561 23.7333 126.721 23.88C126.881 24.0267 127.148 24.1 127.521 24.1H128.741ZM130.066 19.96C130.066 18.5733 130.366 17.34 130.966 16.26C131.566 15.1667 132.4 14.32 133.466 13.72C134.546 13.1067 135.766 12.8 137.126 12.8C138.793 12.8 140.22 13.24 141.406 14.12C142.593 15 143.386 16.2 143.786 17.72H140.026C139.746 17.1333 139.346 16.6867 138.826 16.38C138.32 16.0733 137.74 15.92 137.086 15.92C136.033 15.92 135.18 16.2867 134.526 17.02C133.873 17.7533 133.546 18.7333 133.546 19.96C133.546 21.1867 133.873 22.1667 134.526 22.9C135.18 23.6333 136.033 24 137.086 24C137.74 24 138.32 23.8467 138.826 23.54C139.346 23.2333 139.746 22.7867 140.026 22.2H143.786C143.386 23.72 142.593 24.92 141.406 25.8C140.22 26.6667 138.793 27.1 137.126 27.1C135.766 27.1 134.546 26.8 133.466 26.2C132.4 25.5867 131.566 24.74 130.966 23.66C130.366 22.58 130.066 21.3467 130.066 19.96ZM152.741 15.72C154.021 15.72 155.047 16.1467 155.821 17C156.594 17.84 156.981 19 156.981 20.48V27H153.581V20.94C153.581 20.1933 153.387 19.6133 153.001 19.2C152.614 18.7867 152.094 18.58 151.441 18.58C150.787 18.58 150.267 18.7867 149.881 19.2C149.494 19.6133 149.301 20.1933 149.301 20.94V27H145.881V12.2H149.301V17.34C149.647 16.8467 150.121 16.4533 150.721 16.16C151.321 15.8667 151.994 15.72 152.741 15.72ZM158.677 21.4C158.677 20.2533 158.891 19.2467 159.317 18.38C159.757 17.5133 160.351 16.8467 161.097 16.38C161.844 15.9133 162.677 15.68 163.597 15.68C164.384 15.68 165.071 15.84 165.657 16.16C166.257 16.48 166.717 16.9 167.037 17.42V15.84H170.457V27H167.037V25.42C166.704 25.94 166.237 26.36 165.637 26.68C165.051 27 164.364 27.16 163.577 27.16C162.671 27.16 161.844 26.9267 161.097 26.46C160.351 25.98 159.757 25.3067 159.317 24.44C158.891 23.56 158.677 22.5467 158.677 21.4ZM167.037 21.42C167.037 20.5667 166.797 19.8933 166.317 19.4C165.851 18.9067 165.277 18.66 164.597 18.66C163.917 18.66 163.337 18.9067 162.857 19.4C162.391 19.88 162.157 20.5467 162.157 21.4C162.157 22.2533 162.391 22.9333 162.857 23.44C163.337 23.9333 163.917 24.18 164.597 24.18C165.277 24.18 165.851 23.9333 166.317 23.44C166.797 22.9467 167.037 22.2733 167.037 21.42ZM174.651 14.68C174.051 14.68 173.558 14.5067 173.171 14.16C172.798 13.8 172.611 13.36 172.611 12.84C172.611 12.3067 172.798 11.8667 173.171 11.52C173.558 11.16 174.051 10.98 174.651 10.98C175.238 10.98 175.718 11.16 176.091 11.52C176.478 11.8667 176.671 12.3067 176.671 12.84C176.671 13.36 176.478 13.8 176.091 14.16C175.718 14.5067 175.238 14.68 174.651 14.68ZM176.351 15.84V27H172.931V15.84H176.351ZM185.63 15.72C186.937 15.72 187.977 16.1467 188.75 17C189.537 17.84 189.93 19 189.93 20.48V27H186.53V20.94C186.53 20.1933 186.337 19.6133 185.95 19.2C185.563 18.7867 185.043 18.58 184.39 18.58C183.737 18.58 183.217 18.7867 182.83 19.2C182.443 19.6133 182.25 20.1933 182.25 20.94V27H178.83V15.84H182.25V17.32C182.597 16.8267 183.063 16.44 183.65 16.16C184.237 15.8667 184.897 15.72 185.63 15.72Z" fill="#331000"/>
<defs>
<clipPath id="clip0_5422_192">
<rect width="22" height="26" fill="white" transform="translate(9 7)"/>
</clipPath>
</defs>
</svg>
