<svg width="278" height="128" viewBox="0 0 278 128" fill="none" xmlns="http://www.w3.org/2000/svg">
<g filter="url(#filter0_d_5408_525)">
<rect x="42.5" y="40.5" width="193" height="43" rx="8.5" stroke="black" stroke-opacity="0.1" shape-rendering="crispEdges"/>
<path d="M68.5857 68.126C67.7577 68.126 67.0137 67.982 66.3537 67.694C65.7057 67.394 65.1957 66.986 64.8237 66.47C64.4517 65.942 64.2597 65.336 64.2477 64.652H65.9937C66.0537 65.24 66.2937 65.738 66.7137 66.146C67.1457 66.542 67.7697 66.74 68.5857 66.74C69.3657 66.74 69.9777 66.548 70.4217 66.164C70.8777 65.768 71.1057 65.264 71.1057 64.652C71.1057 64.172 70.9737 63.782 70.7097 63.482C70.4457 63.182 70.1157 62.954 69.7197 62.798C69.3237 62.642 68.7897 62.474 68.1177 62.294C67.2897 62.078 66.6237 61.862 66.1197 61.646C65.6277 61.43 65.2017 61.094 64.8417 60.638C64.4937 60.17 64.3197 59.546 64.3197 58.766C64.3197 58.082 64.4937 57.476 64.8417 56.948C65.1897 56.42 65.6757 56.012 66.2997 55.724C66.9357 55.436 67.6617 55.292 68.4777 55.292C69.6537 55.292 70.6137 55.586 71.3577 56.174C72.1137 56.762 72.5397 57.542 72.6357 58.514H70.8357C70.7757 58.034 70.5237 57.614 70.0797 57.254C69.6357 56.882 69.0477 56.696 68.3157 56.696C67.6317 56.696 67.0737 56.876 66.6417 57.236C66.2097 57.584 65.9937 58.076 65.9937 58.712C65.9937 59.168 66.1197 59.54 66.3717 59.828C66.6357 60.116 66.9537 60.338 67.3257 60.494C67.7097 60.638 68.2437 60.806 68.9277 60.998C69.7557 61.226 70.4217 61.454 70.9257 61.682C71.4297 61.898 71.8617 62.24 72.2217 62.708C72.5817 63.164 72.7617 63.788 72.7617 64.58C72.7617 65.192 72.5997 65.768 72.2757 66.308C71.9517 66.848 71.4717 67.286 70.8357 67.622C70.1997 67.958 69.4497 68.126 68.5857 68.126ZM77.1701 59.486V65.3C77.1701 65.78 77.2721 66.122 77.4761 66.326C77.6801 66.518 78.0341 66.614 78.5381 66.614H79.7441V68H78.2681C77.3561 68 76.6721 67.79 76.2161 67.37C75.7601 66.95 75.5321 66.26 75.5321 65.3V59.486H74.2541V58.136H75.5321V55.652H77.1701V58.136H79.7441V59.486H77.1701ZM90.4768 58.136V68H88.8388V66.542C88.5268 67.046 88.0888 67.442 87.5248 67.73C86.9728 68.006 86.3608 68.144 85.6888 68.144C84.9208 68.144 84.2308 67.988 83.6188 67.676C83.0068 67.352 82.5208 66.872 82.1608 66.236C81.8128 65.6 81.6388 64.826 81.6388 63.914V58.136H83.2588V63.698C83.2588 64.67 83.5048 65.42 83.9968 65.948C84.4888 66.464 85.1608 66.722 86.0128 66.722C86.8888 66.722 87.5788 66.452 88.0828 65.912C88.5868 65.372 88.8388 64.586 88.8388 63.554V58.136H90.4768ZM92.6304 63.032C92.6304 62.024 92.8344 61.142 93.2424 60.386C93.6504 59.618 94.2084 59.024 94.9164 58.604C95.6364 58.184 96.4404 57.974 97.3284 57.974C98.0964 57.974 98.8104 58.154 99.4704 58.514C100.13 58.862 100.634 59.324 100.982 59.9V54.68H102.638V68H100.982V66.146C100.658 66.734 100.178 67.22 99.5424 67.604C98.9064 67.976 98.1624 68.162 97.3104 68.162C96.4344 68.162 95.6364 67.946 94.9164 67.514C94.2084 67.082 93.6504 66.476 93.2424 65.696C92.8344 64.916 92.6304 64.028 92.6304 63.032ZM100.982 63.05C100.982 62.306 100.832 61.658 100.532 61.106C100.232 60.554 99.8244 60.134 99.3084 59.846C98.8044 59.546 98.2464 59.396 97.6344 59.396C97.0224 59.396 96.4644 59.54 95.9604 59.828C95.4564 60.116 95.0544 60.536 94.7544 61.088C94.4544 61.64 94.3044 62.288 94.3044 63.032C94.3044 63.788 94.4544 64.448 94.7544 65.012C95.0544 65.564 95.4564 65.99 95.9604 66.29C96.4644 66.578 97.0224 66.722 97.6344 66.722C98.2464 66.722 98.8044 66.578 99.3084 66.29C99.8244 65.99 100.232 65.564 100.532 65.012C100.832 64.448 100.982 63.794 100.982 63.05ZM114.407 62.69C114.407 63.002 114.389 63.332 114.353 63.68H106.469C106.529 64.652 106.859 65.414 107.459 65.966C108.071 66.506 108.809 66.776 109.673 66.776C110.381 66.776 110.969 66.614 111.437 66.29C111.917 65.954 112.253 65.51 112.445 64.958H114.209C113.945 65.906 113.417 66.68 112.625 67.28C111.833 67.868 110.849 68.162 109.673 68.162C108.737 68.162 107.897 67.952 107.153 67.532C106.421 67.112 105.845 66.518 105.425 65.75C105.005 64.97 104.795 64.07 104.795 63.05C104.795 62.03 104.999 61.136 105.407 60.368C105.815 59.6 106.385 59.012 107.117 58.604C107.861 58.184 108.713 57.974 109.673 57.974C110.609 57.974 111.437 58.178 112.157 58.586C112.877 58.994 113.429 59.558 113.813 60.278C114.209 60.986 114.407 61.79 114.407 62.69ZM112.715 62.348C112.715 61.724 112.577 61.19 112.301 60.746C112.025 60.29 111.647 59.948 111.167 59.72C110.699 59.48 110.177 59.36 109.601 59.36C108.773 59.36 108.065 59.624 107.477 60.152C106.901 60.68 106.571 61.412 106.487 62.348H112.715ZM121.375 57.956C122.575 57.956 123.547 58.322 124.291 59.054C125.035 59.774 125.407 60.818 125.407 62.186V68H123.787V62.42C123.787 61.436 123.541 60.686 123.049 60.17C122.557 59.642 121.885 59.378 121.033 59.378C120.169 59.378 119.479 59.648 118.963 60.188C118.459 60.728 118.207 61.514 118.207 62.546V68H116.569V58.136H118.207V59.54C118.531 59.036 118.969 58.646 119.521 58.37C120.085 58.094 120.703 57.956 121.375 57.956ZM130.08 59.486V65.3C130.08 65.78 130.182 66.122 130.386 66.326C130.59 66.518 130.944 66.614 131.448 66.614H132.654V68H131.178C130.266 68 129.582 67.79 129.126 67.37C128.67 66.95 128.442 66.26 128.442 65.3V59.486H127.164V58.136H128.442V55.652H130.08V58.136H132.654V59.486H130.08ZM134.027 61.718C134.027 60.494 134.303 59.396 134.855 58.424C135.407 57.44 136.157 56.672 137.105 56.12C138.065 55.568 139.127 55.292 140.291 55.292C141.659 55.292 142.853 55.622 143.873 56.282C144.893 56.942 145.637 57.878 146.105 59.09H144.143C143.795 58.334 143.291 57.752 142.631 57.344C141.983 56.936 141.203 56.732 140.291 56.732C139.415 56.732 138.629 56.936 137.933 57.344C137.237 57.752 136.691 58.334 136.295 59.09C135.899 59.834 135.701 60.71 135.701 61.718C135.701 62.714 135.899 63.59 136.295 64.346C136.691 65.09 137.237 65.666 137.933 66.074C138.629 66.482 139.415 66.686 140.291 66.686C141.203 66.686 141.983 66.488 142.631 66.092C143.291 65.684 143.795 65.102 144.143 64.346H146.105C145.637 65.546 144.893 66.476 143.873 67.136C142.853 67.784 141.659 68.108 140.291 68.108C139.127 68.108 138.065 67.838 137.105 67.298C136.157 66.746 135.407 65.984 134.855 65.012C134.303 64.04 134.027 62.942 134.027 61.718ZM153.439 57.956C154.183 57.956 154.855 58.118 155.455 58.442C156.055 58.754 156.523 59.228 156.859 59.864C157.207 60.5 157.381 61.274 157.381 62.186V68H155.761V62.42C155.761 61.436 155.515 60.686 155.023 60.17C154.531 59.642 153.859 59.378 153.007 59.378C152.143 59.378 151.453 59.648 150.937 60.188C150.433 60.728 150.181 61.514 150.181 62.546V68H148.543V54.68H150.181V59.54C150.505 59.036 150.949 58.646 151.513 58.37C152.089 58.094 152.731 57.956 153.439 57.956ZM159.445 63.032C159.445 62.024 159.649 61.142 160.057 60.386C160.465 59.618 161.023 59.024 161.731 58.604C162.451 58.184 163.249 57.974 164.125 57.974C164.989 57.974 165.739 58.16 166.375 58.532C167.011 58.904 167.485 59.372 167.797 59.936V58.136H169.453V68H167.797V66.164C167.473 66.74 166.987 67.22 166.339 67.604C165.703 67.976 164.959 68.162 164.107 68.162C163.231 68.162 162.439 67.946 161.731 67.514C161.023 67.082 160.465 66.476 160.057 65.696C159.649 64.916 159.445 64.028 159.445 63.032ZM167.797 63.05C167.797 62.306 167.647 61.658 167.347 61.106C167.047 60.554 166.639 60.134 166.123 59.846C165.619 59.546 165.061 59.396 164.449 59.396C163.837 59.396 163.279 59.54 162.775 59.828C162.271 60.116 161.869 60.536 161.569 61.088C161.269 61.64 161.119 62.288 161.119 63.032C161.119 63.788 161.269 64.448 161.569 65.012C161.869 65.564 162.271 65.99 162.775 66.29C163.279 66.578 163.837 66.722 164.449 66.722C165.061 66.722 165.619 66.578 166.123 66.29C166.639 65.99 167.047 65.564 167.347 65.012C167.647 64.448 167.797 63.794 167.797 63.05ZM173.067 56.534C172.755 56.534 172.491 56.426 172.275 56.21C172.059 55.994 171.951 55.73 171.951 55.418C171.951 55.106 172.059 54.842 172.275 54.626C172.491 54.41 172.755 54.302 173.067 54.302C173.367 54.302 173.619 54.41 173.823 54.626C174.039 54.842 174.147 55.106 174.147 55.418C174.147 55.73 174.039 55.994 173.823 56.21C173.619 56.426 173.367 56.534 173.067 56.534ZM173.859 58.136V68H172.221V58.136H173.859ZM181.457 57.956C182.657 57.956 183.629 58.322 184.373 59.054C185.117 59.774 185.489 60.818 185.489 62.186V68H183.869V62.42C183.869 61.436 183.623 60.686 183.131 60.17C182.639 59.642 181.967 59.378 181.115 59.378C180.251 59.378 179.561 59.648 179.045 60.188C178.541 60.728 178.289 61.514 178.289 62.546V68H176.651V58.136H178.289V59.54C178.613 59.036 179.051 58.646 179.603 58.37C180.167 58.094 180.785 57.956 181.457 57.956Z" fill="#331000"/>
<path d="M206.75 61.8126C206.608 61.8126 206.465 61.7601 206.353 61.6476C206.135 61.4301 206.135 61.0701 206.353 60.8526L212.503 54.7026C212.72 54.4851 213.08 54.4851 213.298 54.7026C213.515 54.9201 213.515 55.2801 213.298 55.4976L207.148 61.6476C207.035 61.7601 206.893 61.8126 206.75 61.8126Z" fill="#331000"/>
<path d="M213.5 58.6625C213.192 58.6625 212.937 58.4075 212.937 58.1V55.0625H209.9C209.592 55.0625 209.337 54.8075 209.337 54.5C209.337 54.1925 209.592 53.9375 209.9 53.9375H213.5C213.807 53.9375 214.062 54.1925 214.062 54.5V58.1C214.062 58.4075 213.807 58.6625 213.5 58.6625Z" fill="#331000"/>
<path d="M208.25 70.0625H203.75C199.678 70.0625 197.938 68.3225 197.938 64.25V59.75C197.938 55.6775 199.678 53.9375 203.75 53.9375H205.25C205.557 53.9375 205.812 54.1925 205.812 54.5C205.812 54.8075 205.557 55.0625 205.25 55.0625H203.75C200.293 55.0625 199.062 56.2925 199.062 59.75V64.25C199.062 67.7075 200.293 68.9375 203.75 68.9375H208.25C211.708 68.9375 212.938 67.7075 212.938 64.25V62.75C212.938 62.4425 213.193 62.1875 213.5 62.1875C213.807 62.1875 214.062 62.4425 214.062 62.75V64.25C214.062 68.3225 212.323 70.0625 208.25 70.0625Z" fill="#331000"/>
</g>
<defs>
<filter id="filter0_d_5408_525" x="0" y="0" width="278" height="128" filterUnits="userSpaceOnUse" color-interpolation-filters="sRGB">
<feFlood flood-opacity="0" result="BackgroundImageFix"/>
<feColorMatrix in="SourceAlpha" type="matrix" values="0 0 0 0 0 0 0 0 0 0 0 0 0 0 0 0 0 0 127 0" result="hardAlpha"/>
<feOffset dy="2"/>
<feGaussianBlur stdDeviation="21"/>
<feComposite in2="hardAlpha" operator="out"/>
<feColorMatrix type="matrix" values="0 0 0 0 0 0 0 0 0 0 0 0 0 0 0 0 0 0 0.25 0"/>
<feBlend mode="normal" in2="BackgroundImageFix" result="effect1_dropShadow_5408_525"/>
<feBlend mode="normal" in="SourceGraphic" in2="effect1_dropShadow_5408_525" result="shape"/>
</filter>
</defs>
</svg>
